<?xml version="1.0" encoding="UTF-8"?>
<svg xmlns="http://www.w3.org/2000/svg" xmlns:xlink="http://www.w3.org/1999/xlink" width="16px" height="16px" viewBox="0 0 16 16" version="1.1">
<g id="surface1">
<path style=" stroke:none;fill-rule:nonzero;fill:rgb(0%,0%,0%);fill-opacity:1;" d="M 9.332031 2 L 1.332031 3.332031 L 1.332031 12.667969 L 9.332031 14 L 9.332031 12.667969 L 14 12.667969 C 14.367188 12.667969 14.667969 12.367188 14.667969 12 L 14.667969 4 C 14.667969 3.632812 14.367188 3.332031 14 3.332031 L 9.332031 3.332031 Z M 8 3.574219 L 8 12.425781 L 2.667969 11.539062 L 2.667969 4.460938 Z M 9.332031 4.667969 L 13.332031 4.667969 L 13.332031 6 L 9.332031 6 Z M 3 5.667969 L 3.867188 10.332031 L 4.726562 10.332031 L 5.292969 7.839844 C 5.320312 7.699219 5.339844 7.527344 5.351562 7.316406 L 5.363281 7.316406 C 5.371094 7.507812 5.386719 7.683594 5.414062 7.839844 L 5.964844 10.332031 L 6.792969 10.332031 L 7.667969 5.667969 L 6.757812 5.667969 L 6.457031 7.816406 C 6.433594 7.996094 6.417969 8.167969 6.410156 8.335938 L 6.402344 8.335938 C 6.386719 8.121094 6.367188 7.953125 6.347656 7.839844 L 5.976562 5.667969 L 4.800781 5.667969 L 4.40625 7.84375 C 4.367188 8.042969 4.34375 8.230469 4.339844 8.390625 L 4.320312 8.390625 C 4.316406 8.171875 4.300781 7.988281 4.277344 7.855469 L 3.96875 5.667969 Z M 9.332031 7.332031 L 13.332031 7.332031 L 13.332031 8.667969 L 9.332031 8.667969 Z M 9.332031 10 L 13.332031 10 L 13.332031 11.332031 L 9.332031 11.332031 Z M 9.332031 10 "/>
</g>
</svg>
